# xmcd
#
# Track frame offsets:
#	150
#	23890
#	36262
#	54112
#	73332
#	90187
#	109297
#	124477
#	147252
#	167980
#	177610
#
# Disc length: 2595 seconds
#
# Revision: 0
# Processed by: cddbd v1.5.2PL0 Copyright (c) Steve Scherf et al.
# Submitted via: audiograbber 1.83.01
#
DISCID=9f0a210b
DTITLE=Alice Cooper - The Studio Albums 1969-1983 [CD 09) - Alice Cooper Goes T
DTITLE=o Hell
DYEAR=1976
DGENRE=Rock
TTITLE0=Go To Hell
TTITLE1=You Gotta Dance
TTITLE2=I'm The Coolest
TTITLE3=Didn't We Meet
TTITLE4=I Never Cry
TTITLE5=Give The Kid A Break
TTITLE6=Guilty
TTITLE7=Wake Me Gently
TTITLE8=Wish You Were Here
TTITLE9=I'm Always Chasing Rainbows
TTITLE10=Going Home
EXTD=
EXTT0=
EXTT1=
EXTT2=
EXTT3=
EXTT4=
EXTT5=
EXTT6=
EXTT7=
EXTT8=
EXTT9=
EXTT10=
PLAYORDER=
